<?xml version="1.0" encoding="UTF-8"?>
<svg id="Layer_2" data-name="Layer 2" xmlns="http://www.w3.org/2000/svg" viewBox="0 0 1936 710.12">
  <defs>
    <style>
      .cls-1 {
        fill: #e10718;
      }

      .cls-1, .cls-2 {
        stroke-width: 0px;
      }

      .cls-3 {
        fill: none;
        stroke: #e10718;
        stroke-miterlimit: 10;
        stroke-width: 11.34px;
      }

      .cls-2 {
        fill: #fff;
      }
    </style>
  </defs>
  <g id="Layer_1-2" data-name="Layer 1">
    <g>
      <g>
        <path class="cls-2" d="M158.84,8.33h42.98v271.47h144.73l-4.82,39.03h-182.88V8.33Z"/>
        <path class="cls-2" d="M388.65,8.33h181.13l4.39,38.59h-142.53v93.85h131.57v38.15h-131.57v101.31h142.53l-4.39,38.59h-181.13V8.33Z"/>
        <path class="cls-2" d="M620.22,262.26l30.7-21.05,7.46,1.75c18.42,33.33,39.47,46.93,70.17,46.93,33.33,0,56.57-22.81,56.57-50s-13.16-43.86-68.85-66.66c-63.59-26.75-85.52-53.94-85.52-94.73,0-43.86,35.96-78.5,95.17-78.5,43.86,0,74.56,18.86,92.54,49.56l-29.82,21.05-7.46-1.75c-13.16-20.17-29.38-32.02-56.14-32.02-31.58,0-49.56,17.54-49.56,41.22,0,21.93,11.4,34.21,66.22,59.21,70.17,31.58,88.15,58.33,88.15,100.87,0,48.68-41.66,89.03-100.87,89.03-48.68,0-83.33-18.86-108.76-64.91Z"/>
        <path class="cls-2" d="M873.71,163.58c0-94.29,69.29-163.58,161.83-163.58,63.59,0,111.4,27.19,141.66,82.89l-30.7,20.61-7.46-1.75c-24.12-42.54-57.01-61.4-102.62-61.4-67.1,0-117.1,52.19-117.1,123.24s50.87,123.24,117.54,123.24c49.56,0,81.13-18.42,104.38-60.52l7.89-1.75,29.38,20.61c-32.45,55.7-78.5,82.01-142.97,82.01-92.98,0-161.83-68.85-161.83-163.58Z"/>
        <path class="cls-2" d="M1234.22,8.33h42.98v271.47h144.73l-4.82,39.03h-182.88V8.33Z"/>
        <path class="cls-2" d="M1445.17,163.58c0-92.1,68.85-163.58,166.22-163.58s165.78,71.49,165.78,163.58-69.73,163.58-165.78,163.58-166.22-71.49-166.22-163.58ZM1731.99,163.58c0-70.17-49.56-123.24-120.6-123.24s-121.04,53.07-121.04,123.24,50.43,123.24,121.04,123.24,120.6-53.94,120.6-123.24Z"/>
      </g>
      <g>
        <path class="cls-2" d="M210.25,568.41h10.92v138.01h-10.92v-138.01Z"/>
        <path class="cls-2" d="M262.09,706.41v-138.01h8.38l68.03,82.65,26.12,31.38h.59v-114.03h10.72v140.74h-2.14l-74.27-89.67c-8.58-10.33-17.35-20.86-26.12-31.19h-.59v118.13h-10.72Z"/>
        <path class="cls-2" d="M448.05,578.54h-48.93v-10.14h108.96v10.14h-49.12v127.87h-10.92v-127.87Z"/>
        <path class="cls-2" d="M531.09,568.41h76.8l1.17,10.14h-67.05v52.05h62.38v10.14h-62.38v55.55h67.05l-1.17,10.14h-76.8v-138.01Z"/>
        <path class="cls-2" d="M737.7,704.27l-.98,2.14h-10.92l-43.08-61.01h-28.26v61.01h-10.92v-138.01h36.06c29.82,0,45.61,13.06,45.61,38.79,0,18.91-10.72,32.55-30.99,36.65l43.47,60.43ZM654.47,635.66h24.17c24.56,0,35.67-10.14,35.67-28.46,0-20.08-12.09-28.85-37.23-28.85h-22.61v57.31Z"/>
        <path class="cls-2" d="M760.51,706.41v-138.01h8.38l68.03,82.65,26.12,31.38h.58v-114.03h10.72v140.74h-2.14l-74.27-89.67c-8.58-10.33-17.35-20.86-26.12-31.19h-.58v118.13h-10.72Z"/>
        <path class="cls-2" d="M1009.23,706.41l-15.98-38.6h-70.76l-15.98,38.6h-11.89l59.45-138.2h7.8l59.26,138.2h-11.89ZM926.38,658.27h62.77l-19.1-46c-4.48-10.33-8.38-19.88-12.28-29.24h-.39c-3.7,9.36-7.8,19.1-11.89,29.24l-19.1,46Z"/>
        <path class="cls-2" d="M1062.83,578.54h-48.93v-10.14h108.96v10.14h-49.12v127.87h-10.92v-127.87Z"/>
        <path class="cls-2" d="M1145.87,568.41h10.92v138.01h-10.92v-138.01Z"/>
        <path class="cls-2" d="M1188.75,637.41c0-40.74,29.43-72.71,73.1-72.71s72.9,31.97,72.9,72.71-30.02,72.71-72.9,72.71-73.1-31.77-73.1-72.71ZM1323.25,637.41c0-35.09-25.15-62.38-61.4-62.38s-61.6,27.29-61.6,62.38,25.34,62.38,61.6,62.38,61.4-27.68,61.4-62.38Z"/>
        <path class="cls-2" d="M1366.71,706.41v-138.01h8.38l68.03,82.65,26.12,31.38h.58v-114.03h10.72v140.74h-2.14l-74.27-89.67c-8.58-10.33-17.35-20.86-26.12-31.19h-.58v118.13h-10.72Z"/>
        <path class="cls-2" d="M1615.43,706.41l-15.98-38.6h-70.76l-15.98,38.6h-11.89l59.45-138.2h7.8l59.26,138.2h-11.89ZM1532.59,658.27h62.77l-19.1-46c-4.48-10.33-8.38-19.88-12.28-29.24h-.39c-3.7,9.36-7.8,19.1-11.89,29.24l-19.1,46Z"/>
        <path class="cls-2" d="M1647.59,568.41h10.92v127.87h67.25l-1.36,10.14h-76.8v-138.01Z"/>
      </g>
      <g>
        <line class="cls-3" x1="1299.13" y1="445.6" x2="1531.21" y2="445.6"/>
        <line class="cls-3" x1="414.73" y1="445.6" x2="646.81" y2="445.6"/>
        <g>
          <path class="cls-2" d="M66.98,483.01v8.37H2.75v-6.67l38.07-37.28c10.33-10.2,12.3-16.35,12.3-22.63,0-10.6-7.46-17.14-21.45-17.14-10.73,0-18.97,3.27-24.99,10.2l-6.67-5.76c7.06-8.37,18.45-13.08,32.44-13.08,18.58,0,30.35,9.42,30.35,24.72,0,8.76-2.75,16.61-15.04,28.65l-31.14,30.61h50.37Z"/>
          <path class="cls-2" d="M104.02,445.6c0-29.17,15.31-46.57,36.5-46.57s36.63,17.4,36.63,46.57-15.44,46.57-36.63,46.57-36.5-17.4-36.5-46.57ZM167.46,445.6c0-24.46-10.99-37.94-26.95-37.94s-26.95,13.47-26.95,37.94,10.99,37.94,26.95,37.94,26.95-13.47,26.95-37.94Z"/>
        </g>
        <g>
          <path class="cls-2" d="M1809.62,400v91.19h-9.38v-82.86h-21.5v-8.34h30.88Z"/>
          <path class="cls-2" d="M1936,463.97c0,17.07-13.42,28.01-31.14,28.01-24.23,0-37.39-16.81-37.39-45.6,0-31.01,16.94-47.16,41.69-47.16,8.21,0,15.89,1.43,21.63,4.95l-3.78,7.56c-4.69-3.13-10.94-4.3-17.72-4.3-19.67,0-32.31,12.64-32.31,37.39,0,2.08.13,4.69.39,7.43,4.56-10.03,15.24-15.63,27.88-15.63,18.11,0,30.75,10.68,30.75,27.36ZM1926.75,464.23c0-11.99-8.86-19.67-22.93-19.67s-23.45,8.6-23.45,19.93c0,10.03,8.34,19.54,24.1,19.54,13.16,0,22.28-7.69,22.28-19.8Z"/>
        </g>
        <polygon class="cls-1" points="972.97 396.55 985.15 434.02 1024.54 434.02 992.67 457.18 1004.84 494.65 972.97 471.49 941.1 494.65 953.27 457.18 921.4 434.02 960.8 434.02 972.97 396.55"/>
      </g>
    </g>
  </g>
</svg>